<?xml version="1.0" standalone="no"?><!DOCTYPE svg PUBLIC "-//W3C//DTD SVG 1.1//EN" "http://www.w3.org/Graphics/SVG/1.1/DTD/svg11.dtd"><svg t="1618630945025" class="icon" viewBox="0 0 1024 1024" version="1.1" xmlns="http://www.w3.org/2000/svg" p-id="3097" xmlns:xlink="http://www.w3.org/1999/xlink" width="512" height="512"><defs><style type="text/css"></style></defs><path d="M716.8 819.2H179.2c-28.277333 0-51.2-22.922667-51.2-51.2V179.2c0-28.277333 22.922667-51.2 51.2-51.2h537.6c28.277333 0 51.2 22.922667 51.2 51.2V768c0 28.277333-22.922667 51.2-51.2 51.2" fill="#86D5FF" p-id="3098"></path><path d="M870.4 921.6H332.8c-28.277333 0-51.2-22.922667-51.2-51.2V281.6c0-28.277333 22.922667-51.2 51.2-51.2h537.6c28.277333 0 51.2 22.922667 51.2 51.2v588.8c0 28.277333-22.922667 51.2-51.2 51.2" fill="#5555FF" p-id="3099"></path><path d="M281.6 819.2V281.6c0-28.277333 22.922667-51.2 51.2-51.2H768V768c0 28.277333-22.922667 51.2-51.2 51.2H281.6z" fill="#2D47FF" p-id="3100"></path><path d="M678.261333 540.581333v5.669334c8.245333-10.88 17.269333-18.853333 27.04-23.946667 9.786667-5.109333 21.04-7.642667 33.749334-7.642667 12.352 0 23.397333 2.677333 33.141333 8.064a51.306667 51.306667 0 0 1 21.797333 22.837334A54.826667 54.826667 0 0 1 800 564.106667c0.906667 6.629333 1.370667 15.12 1.370667 25.408v87.221333c0 9.392-2.154667 16.474667-6.453334 21.285333-4.288 4.810667-9.866667 7.221333-16.730666 7.221334-6.976 0-12.645333-2.458667-16.997334-7.386667-4.352-4.917333-6.528-11.957333-6.528-21.12V598.613333c0-15.450667-2.133333-27.28-6.437333-35.456-4.288-8.181333-12.837333-12.277333-25.664-12.277333a37.866667 37.866667 0 0 0-22.837333 7.477333c-6.858667 4.976-11.914667 11.797333-15.114667 20.501334-2.293333 6.986667-3.429333 20.048-3.429333 39.157333v58.714667c0 9.493333-2.202667 16.624-6.608 21.376-4.416 4.762667-10.112 7.130667-17.088 7.130666-6.746667 0-12.298667-2.458667-16.650667-7.386666-4.352-4.917333-6.528-11.957333-6.528-21.12v-135.466667c0-8.933333 1.946667-15.6 5.824-20 3.904-4.405333 9.226667-6.608 16-6.608 4.106667 0 7.834667 0.970667 11.146667 2.917333 3.306667 1.946667 5.973333 4.864 7.973333 8.757334 2.010667 3.877333 3.008 8.64 3.008 14.245333z m-107.989333-52.021333H455.402667v61.813333h105.765333c7.786667 0 13.594667 1.738667 17.434667 5.237334 3.829333 3.493333 5.749333 8.101333 5.749333 13.824 0 5.717333-1.882667 10.378667-5.658667 13.989333-3.786667 3.594667-9.626667 5.413333-17.525333 5.413333H455.402667v71.589334h118.810666c8.010667 0 14.064 1.856 18.112 5.584 4.069333 3.712 6.106667 8.661333 6.106667 14.848 0 5.952-2.037333 10.789333-6.106667 14.512-4.058667 3.712-10.101333 5.568-18.112 5.568H435.664c-11.109333 0-19.093333-2.453333-23.962667-7.370667-4.864-4.928-7.296-12.88-7.296-23.861333V480.496c0-7.344 1.088-13.312 3.264-17.957333a20.218667 20.218667 0 0 1 10.229334-10.122667c4.618667-2.128 10.533333-3.173333 17.754666-3.173333h134.602667c8.128 0 14.170667 1.802667 18.128 5.413333 3.941333 3.594667 5.909333 8.330667 5.909333 14.154667 0 5.952-1.973333 10.741333-5.909333 14.336-3.957333 3.610667-10 5.413333-18.128 5.413333h0.016z" fill="#FFFFFF" p-id="3101"></path></svg>