<?xml version="1.0" standalone="no"?><!DOCTYPE svg PUBLIC "-//W3C//DTD SVG 1.1//EN" "http://www.w3.org/Graphics/SVG/1.1/DTD/svg11.dtd"><svg t="1618630036584" class="icon" viewBox="0 0 1024 1024" version="1.1" xmlns="http://www.w3.org/2000/svg" p-id="2968" width="512" height="512" xmlns:xlink="http://www.w3.org/1999/xlink"><defs><style type="text/css"></style></defs><path d="M0 0m128 0l768 0q128 0 128 128l0 768q0 128-128 128l-768 0q-128 0-128-128l0-768q0-128 128-128Z" fill="#6D6CD3" p-id="2969"></path><path d="M433.28 774.4c16.192 0 27.712-2.56 34.56-7.68 6.848-5.12 10.24-14.528 10.24-28.16s-3.392-23.04-10.24-28.16c-6.848-5.12-18.368-7.68-34.56-7.68H278.4V579.84h148.48c13.632 0 23.488-2.688 29.44-8 5.952-5.312 8.96-14.4 8.96-27.2 0-12.8-3.008-22.08-8.96-27.84-5.952-5.76-15.808-8.64-29.44-8.64H278.4V400h154.88c12.352 0 21.952-2.688 28.8-8 6.848-5.312 10.048-14.592 9.6-27.84-0.448-13.248-3.712-22.528-9.92-27.84-6.208-5.312-15.488-8-27.84-8H236.16c-13.632 0-23.872 2.56-30.72 7.68-6.848 5.12-10.24 14.272-10.24 27.52v375.68c0 13.632 3.648 22.912 10.88 27.84 7.232 4.928 17.28 7.36 30.08 7.36h197.12z m360.96 6.4c11.968 0 21.44-2.56 28.48-7.68a23.04 23.04 0 0 0 10.56-19.2V544.64c0-20.48-2.88-38.4-8.64-53.76a100.864 100.864 0 0 0-24.32-38.08 102.272 102.272 0 0 0-37.76-22.72 150.4 150.4 0 0 0-49.6-7.68 88.192 88.192 0 0 0-58.56 20.8 104 104 0 0 0-19.2 20.8c-5.312 7.68-9.92 15.36-13.76 23.04v-31.36c0-7.68-3.712-14.08-11.2-19.2A48.064 48.064 0 0 0 582.4 428.8a51.2 51.2 0 0 0-28.48 7.68c-7.872 5.12-11.84 11.52-11.84 19.2v298.24c0 6.848 3.712 12.992 11.2 18.56 7.488 5.568 16.96 8.32 28.48 8.32s20.992-2.688 28.48-8c7.488-5.312 11.2-11.648 11.2-18.88V572.8c0-16.192 1.792-29.568 5.44-40a58.88 58.88 0 0 1 14.72-24.32 49.408 49.408 0 0 1 22.4-11.84c8.768-2.112 18.24-3.2 28.48-3.2 12.352 0 22.592 1.728 30.72 5.12a40.96 40.96 0 0 1 18.88 15.36c4.48 6.848 7.552 15.488 9.28 25.92 1.728 10.432 2.56 22.528 2.56 36.16v177.92c0 7.68 3.712 14.08 11.2 19.2 7.488 5.12 17.152 7.68 29.12 7.68z" fill="#FFFFFF" p-id="2970"></path></svg>